<?xml version="1.0" standalone="no"?><!DOCTYPE svg PUBLIC "-//W3C//DTD SVG 1.1//EN" "http://www.w3.org/Graphics/SVG/1.1/DTD/svg11.dtd"><svg t="1685323870256" class="icon" viewBox="0 0 1024 1024" version="1.1" xmlns="http://www.w3.org/2000/svg" p-id="1022" xmlns:xlink="http://www.w3.org/1999/xlink" width="200" height="200"><path d="M873.8 344.58L577.82 92.16c-37.8-32.25-90.7-32.35-128.64-0.24l-286.1 242.24c-27.68 23.41-43.55 58.53-43.55 96.35v343.11c0 101.52 76.5 184.1 170.53 184.1h446.88c94.03 0 170.54-82.58 170.54-184.1v-354.4c0-29.17-12.28-56.38-33.68-74.64zM688.92 651.7c-46.54 42.03-106.74 65.17-169.5 65.17s-122.96-23.15-169.5-65.17c-14.54-13.13-15.69-35.57-2.55-50.12 13.14-14.51 35.55-15.68 50.12-2.55 33.47 30.23 76.77 46.88 121.93 46.88 45.16 0 88.46-16.65 121.93-46.88 14.55-13.14 36.98-11.98 50.12 2.55 13.14 14.55 11.99 36.99-2.55 50.12z" fill="#333333" p-id="1023"></path></svg>